<?xml version="1.0" standalone="no"?>
<!DOCTYPE svg PUBLIC "-//W3C//DTD SVG 20010904//EN"
 "http://www.w3.org/TR/2001/REC-SVG-20010904/DTD/svg10.dtd">
<svg version="1.0" xmlns="http://www.w3.org/2000/svg"
 width="302.000000pt" height="302.000000pt" viewBox="0 0 302.000000 302.000000"
 preserveAspectRatio="xMidYMid meet">
<metadata>
Created by potrace 1.11, written by Peter Selinger 2001-2013
</metadata>
<g transform="translate(0.000000,302.000000) scale(0.100000,-0.100000)"
fill="#000000" stroke="none">
<path d="M2071 3001 c-12 -12 -23 -20 -25 -18 -5 3 -180 -95 -187 -106 -3 -5
-9 -8 -13 -7 -11 2 -225 -120 -233 -133 -9 -15 -9 -13 -17 -127 -11 -154 -17
-214 -21 -218 -2 -3 -44 12 -92 33 -48 20 -95 37 -103 38 -8 1 -17 5 -20 8 -3
3 -47 23 -98 44 -72 30 -95 36 -102 26 -4 -7 -18 -52 -30 -100 -12 -47 -64
-243 -115 -436 -134 -504 -166 -627 -171 -654 -3 -13 -9 -31 -13 -40 -7 -14
-21 -71 -26 -106 -1 -5 -5 -17 -8 -25 -6 -14 -66 -239 -72 -270 -2 -8 -10 -40
-19 -71 -9 -31 -18 -65 -20 -75 -5 -20 -137 -520 -157 -589 -6 -22 -15 -53
-20 -69 -5 -16 -7 -32 -4 -34 9 -10 1839 -8 1852 1 7 5 11 12 9 16 -2 3 -7 44
-11 91 -4 47 -9 103 -11 125 -2 22 -6 73 -9 114 -4 41 -8 88 -10 103 -2 16 -6
63 -10 106 -3 42 -8 100 -10 127 -3 28 -7 77 -10 110 -3 33 -7 80 -10 105 -2
25 -7 72 -10 105 -3 33 -7 85 -10 115 -3 30 -7 78 -10 105 -2 28 -7 84 -11
125 -3 41 -7 91 -9 110 -1 19 -6 71 -9 115 -4 44 -9 91 -11 105 -3 14 -7 59
-10 100 -3 41 -7 95 -9 120 -3 25 -7 81 -11 125 -3 44 -8 91 -10 105 -2 14 -6
57 -9 97 -3 39 -8 95 -10 125 -9 94 -15 161 -21 233 -3 39 -8 90 -10 115 -3
25 -7 74 -10 110 -8 91 -14 132 -19 137 -2 3 -14 -5 -25 -16z m-10 -73 c0 -7
2 -21 4 -30 2 -9 6 -56 10 -105 3 -48 8 -101 9 -118 2 -16 6 -66 10 -110 4
-44 9 -102 11 -130 12 -125 15 -154 20 -215 3 -36 7 -85 10 -110 4 -42 7 -68
20 -220 3 -30 7 -75 10 -100 2 -25 7 -79 10 -120 7 -93 13 -159 20 -230 2 -30
7 -86 10 -125 3 -38 8 -86 10 -105 2 -19 7 -69 11 -110 3 -41 7 -91 9 -110 2
-19 6 -66 10 -105 3 -38 8 -90 10 -115 2 -25 7 -74 9 -110 3 -36 8 -87 11
-115 2 -27 7 -79 10 -115 3 -36 7 -85 10 -110 2 -25 7 -78 10 -117 l6 -73 -50
0 c-28 0 -51 3 -52 8 0 4 -2 16 -4 26 -2 11 -7 51 -10 90 -7 77 -9 97 -19 196
-4 36 -9 86 -11 113 -7 65 -15 145 -20 187 -8 65 -15 135 -20 190 -3 30 -7 76
-10 102 -3 27 -7 72 -10 100 -15 150 -25 248 -30 278 -2 14 -7 63 -10 110 -4
47 -9 98 -11 115 -2 16 -6 55 -9 85 -2 31 -6 69 -9 85 -3 17 -7 62 -11 100 -3
39 -8 88 -10 110 -10 86 -15 133 -21 205 -3 41 -7 77 -9 78 -2 2 -35 -14 -72
-37 -89 -51 -95 -52 -100 -16 -5 38 -3 36 -98 75 -74 30 -98 46 -90 60 1 3 6
50 10 105 4 55 9 111 10 125 2 14 3 39 4 57 1 31 8 36 187 137 102 58 189 106
195 106 5 0 9 5 9 10 0 15 20 12 21 -2z m-798 -479 c29 -12 71 -30 94 -40 24
-11 45 -19 49 -19 3 0 30 -11 59 -25 30 -13 66 -27 81 -31 l26 -7 -7 -101 c-4
-55 -8 -116 -9 -134 -1 -31 -7 -37 -88 -84 -49 -28 -88 -54 -88 -59 0 -5 -3
-8 -7 -7 -12 4 -143 -72 -143 -82 0 -6 -5 -9 -11 -8 -7 2 -18 -19 -25 -47 -14
-52 -16 -61 -30 -135 -9 -51 -11 -59 -14 -62 -2 -4 -6 -24 -13 -65 -3 -17 -15
-76 -27 -130 -49 -226 -61 -280 -66 -308 -4 -26 -14 -72 -29 -135 -3 -14 -40
-189 -49 -234 -3 -11 -33 -153 -67 -313 l-63 -293 -129 0 c-114 0 -128 2 -123
16 8 21 88 324 91 344 1 8 5 22 8 30 12 32 28 90 33 117 3 15 20 82 39 148 19
66 36 131 39 145 2 14 13 57 24 95 22 76 91 337 98 370 2 11 11 43 19 70 8 28
32 118 54 200 45 171 62 235 132 496 27 103 51 196 53 206 7 34 29 103 33 103
2 0 28 -10 56 -21z m475 -196 c6 -3 12 -10 13 -17 0 -6 2 -21 5 -33 3 -17 -7
-28 -46 -52 -28 -17 -53 -31 -56 -31 -3 0 -12 -7 -21 -15 -30 -31 -33 -16 -19
120 2 22 5 48 5 57 1 19 -3 20 119 -29z m227 -105 c3 -43 8 -90 10 -105 2 -16
6 -62 10 -103 3 -41 8 -86 10 -100 2 -14 6 -54 10 -90 3 -36 8 -81 10 -100 2
-19 7 -66 11 -105 3 -38 7 -81 9 -95 12 -113 19 -192 30 -298 3 -41 8 -81 10
-90 1 -9 6 -53 10 -97 3 -44 8 -91 10 -105 2 -14 7 -57 10 -97 4 -40 8 -85 10
-100 2 -15 6 -62 10 -103 4 -41 8 -86 10 -100 2 -14 6 -59 10 -100 4 -41 8
-86 10 -100 2 -14 7 -49 10 -77 l6 -53 -35 0 c-34 0 -36 2 -38 33 0 17 -2 37
-3 42 0 6 -5 33 -9 60 -4 28 -9 61 -11 75 -4 23 -22 161 -30 223 -2 15 -9 63
-15 107 -6 44 -13 92 -15 107 -4 33 -13 101 -21 158 -3 22 -7 51 -9 65 -2 14
-6 43 -10 65 -6 44 -11 82 -21 165 -3 30 -8 57 -9 60 -2 3 -6 34 -10 70 -4 36
-9 74 -11 85 -2 11 -9 58 -14 105 -6 47 -13 97 -15 111 -3 14 -7 43 -10 64 -2
20 -7 54 -9 74 -3 20 -8 56 -11 81 -3 25 -8 56 -10 70 -5 29 -12 83 -20 154
-4 27 -7 54 -8 59 -3 15 117 86 124 73 4 -6 10 -46 14 -88z m-190 -74 c4 -31
8 -66 10 -78 2 -11 6 -43 10 -69 4 -27 8 -57 10 -67 2 -11 6 -43 10 -72 3 -29
8 -64 10 -78 9 -61 16 -111 25 -190 6 -47 13 -92 15 -100 2 -8 6 -35 9 -60 13
-120 18 -155 21 -160 2 -3 6 -34 10 -70 4 -36 9 -73 11 -84 2 -10 6 -44 10
-75 3 -31 7 -63 9 -71 6 -34 16 -98 20 -135 5 -44 25 -198 30 -230 2 -11 6
-40 9 -65 4 -25 9 -63 12 -85 3 -22 7 -51 9 -65 2 -14 6 -43 9 -65 3 -22 8
-59 11 -82 l6 -43 -296 0 -297 0 6 82 c3 46 8 106 10 133 3 28 7 86 11 130 3
44 8 100 10 125 2 25 6 79 10 120 3 41 7 98 9 125 8 90 18 219 21 265 3 44 12
161 20 250 3 25 7 83 10 130 3 47 7 108 10 135 9 93 18 202 29 350 5 66 14 79
77 110 33 17 65 36 71 42 17 21 25 7 33 -53z m-230 -106 c-2 -24 -6 -79 -10
-123 -3 -44 -8 -105 -10 -135 -2 -30 -5 -55 -5 -55 0 0 -3 -29 -5 -65 -2 -36
-7 -94 -10 -130 -3 -36 -8 -94 -10 -130 -9 -114 -24 -302 -30 -380 -3 -30 -7
-89 -10 -130 -3 -41 -8 -95 -10 -120 -2 -25 -7 -83 -11 -130 -3 -47 -7 -101
-9 -120 -2 -19 -7 -80 -11 -135 -4 -55 -8 -111 -9 -125 -2 -14 -3 -33 -4 -42
-1 -17 -20 -18 -260 -18 -271 0 -280 2 -259 43 5 10 10 33 12 51 2 18 6 38 10
44 3 6 8 23 10 39 3 25 96 467 131 623 8 36 17 76 19 90 2 14 9 43 14 65 6 22
13 54 15 70 7 42 56 269 72 335 7 30 16 71 19 90 6 39 9 53 34 165 l18 80 154
92 c85 51 156 93 156 93 1 0 0 -19 -1 -42z"/>
</g>
</svg>
